HIERARCHY
ROOT Hips
{
	OFFSET 0.000000 0.000000 0.000000
	CHANNELS 6 Xposition Yposition Zposition Zrotation Yrotation Xrotation 
	JOINT LHipJoint
	{
		OFFSET 0.000000 0.000000 0.000000
		CHANNELS 3 Zrotation Yrotation Xrotation
		JOINT LeftUpLeg
		{
			OFFSET 1.363060 -1.794630 0.839290
			CHANNELS 3 Zrotation Yrotation Xrotation
			JOINT LeftLeg
			{
				OFFSET 2.448110 -6.726130 0.000000
				CHANNELS 3 Zrotation Yrotation Xrotation
				JOINT LeftFoot
				{
					OFFSET 2.562200 -7.039590 0.000000
					CHANNELS 3 Zrotation Yrotation Xrotation
					JOINT LeftToeBase
					{
						OFFSET 0.157640 -0.433110 2.322550
						CHANNELS 3 Zrotation Yrotation Xrotation
						End Site
						{
							OFFSET 0.000000 0.000000 0.000000
						}
					}
				}
			}
		}
	}
	JOINT RHipJoint
	{
		OFFSET 0.000000 0.000000 0.000000
		CHANNELS 3 Zrotation Yrotation Xrotation
		JOINT RightUpLeg
		{
			OFFSET -1.305520 -1.794630 0.839290
			CHANNELS 3 Zrotation Yrotation Xrotation
			JOINT RightLeg
			{
				OFFSET -2.542530 -6.985550 0.000000
				CHANNELS 3 Zrotation Yrotation Xrotation
				JOINT RightFoot
				{
					OFFSET -2.568260 -7.056230 0.000000
					CHANNELS 3 Zrotation Yrotation Xrotation
					JOINT RightToeBase
					{
						OFFSET -0.164730 -0.452590 2.363150
						CHANNELS 3 Zrotation Yrotation Xrotation
						End Site
						{
							OFFSET 0.000000 0.000000 0.000000
						}
					}
				}
			}
		}
	}
}
MOTION
Frames: 30
Frame Time: 0.008333
-10.675250 16.778729 -0.755970 -175.874527 81.012769 -171.694626 -11.635289 5.620719 0.763541 4.048368 10.238419 8.297750 -0.131829 2.046440 27.145482 0.889291 -0.299268 17.728505 -0.537299 0.000000 -77.090900 8.347314 -1.038521 1.298613 16.917865 -6.200841 -31.357207 2.477459 -0.749745 21.887217 -2.576079 -10.705181 -7.768369 -0.797600 0.000000 -18.409301
-10.450449 16.792646 -0.734581 -175.250697 80.963445 -171.261420 -11.722241 5.588269 0.788987 4.511990 10.249535 7.023033 0.041664 2.155488 30.154003 1.062412 -0.061887 19.588071 -0.555600 0.000000 -72.838900 8.352749 -1.113001 1.194461 17.108639 -6.403380 -30.905684 2.430888 -0.874461 23.162965 -2.563156 -10.551945 -8.331442 -0.633900 0.000000 -16.101100
-10.230361 16.806215 -0.712756 -174.663665 80.961031 -170.836438 -11.805358 5.521923 0.796907 4.869275 10.269641 5.597250 0.190822 2.254210 33.273769 1.237445 0.519764 20.956958 -0.398200 0.000001 -67.285200 8.348806 -1.179957 1.102313 17.299475 -6.570829 -30.417568 2.401465 -0.971565 24.293153 -2.560746 -10.375449 -9.106730 -0.427500 0.000000 -13.760300
-10.015074 16.819009 -0.690889 -174.093465 81.002117 -170.404330 -11.884826 5.425954 0.781959 5.127609 10.313307 4.044297 0.317563 2.351314 36.444263 1.405359 1.439910 21.781493 -0.054600 0.000000 -60.903400 8.334615 -1.240557 1.022574 17.487042 -6.688975 -29.872231 2.387505 -1.042251 25.263572 -2.571516 -10.196649 -10.060236 -0.188401 -0.000000 -11.396100
-9.804409 16.830827 -0.668908 -173.597040 81.081867 -170.027829 -11.957002 5.305524 0.742917 5.275348 10.376754 2.398246 0.426736 2.452802 39.591461 1.561705 2.672469 22.050201 0.457499 -0.000000 -54.259700 8.314840 -1.294325 0.953107 17.653431 -6.758682 -29.254387 2.385301 -1.089232 26.067054 -2.594594 -10.026495 -11.137224 0.070900 -0.000000 -9.094200
-9.597855 16.841663 -0.647163 -173.148493 81.193549 -169.683305 -12.023076 5.164970 0.682318 5.322025 10.456165 0.681977 0.523996 2.561024 42.649105 1.705320 4.150490 21.788864 1.085600 -0.000001 -47.937300 8.289188 -1.342995 0.893529 17.800594 -6.774072 -28.552109 2.391980 -1.114518 26.694723 -2.630173 -9.882936 -12.276910 0.337700 -0.000000 -6.877300
-9.394793 16.851660 -0.625610 -172.790481 81.330039 -169.417295 -12.080560 5.008879 0.604480 5.263890 10.538755 -1.078022 0.612978 2.675578 45.557962 1.835405 5.786586 21.031732 1.758800 -0.000000 -42.241000 8.262096 -1.386756 0.841322 17.918350 -6.743615 -27.760854 2.403363 -1.121356 27.147412 -2.675273 -9.773057 -13.413203 0.599801 -0.000000 -4.837300
-9.194561 16.861157 -0.604005 -172.596616 81.484482 -169.306728 -12.125396 4.842056 0.515942 5.091772 10.605756 -2.856754 0.695110 2.793384 48.264261 1.951827 7.488149 19.830212 2.402900 -0.000000 -37.392600 8.240340 -1.425254 0.792560 17.992605 -6.687500 -26.886002 2.415213 -1.113846 27.436482 -2.724352 -9.693802 -14.482840 0.845300 -0.000000 -3.108700
-8.996338 16.870483 -0.582545 -172.550817 81.648228 -169.334162 -12.158015 4.668322 0.423838 4.819474 10.647199 -4.645764 0.769260 2.910772 50.733164 2.051977 9.145721 18.219754 2.939200 0.000000 -33.298100 8.224092 -1.460351 0.746988 18.030264 -6.612604 -25.936959 2.425316 -1.094532 27.570447 -2.774884 -9.650106 -15.441505 1.066400 0.000000 -1.719300
-8.799453 16.879989 -0.561301 -172.639917 81.813253 -169.484680 -12.178424 4.490729 0.336486 4.459323 10.647487 -6.436741 0.832493 3.023008 52.932211 2.133682 10.663827 16.260098 3.307900 -0.000000 -29.907000 8.213316 -1.493429 0.703841 18.038473 -6.528713 -24.927346 2.432334 -1.065770 27.562198 -2.824327 -9.641687 -16.261987 1.258400 0.000000 -0.677999
-8.603288 16.890004 -0.540409 -172.843067 81.972478 -169.734554 -12.186742 4.311851 0.261948 4.025515 10.592570 -8.224494 0.880357 3.125604 54.838823 2.193587 11.959372 14.008483 3.470200 0.000001 -27.041300 8.207126 -1.525765 0.662630 18.026458 -6.446287 -23.875626 2.436041 -1.029643 27.429522 -2.870859 -9.664486 -16.936719 -178.579500 0.000000 -0.035500
-8.407384 16.900761 -0.520033 -173.122062 82.120719 -170.041389 -12.183815 4.132962 0.208118 3.534104 10.466937 -10.004219 0.908170 3.214126 56.435518 2.229630 12.974627 11.549643 3.419100 0.000000 -24.650200 8.203193 -1.558382 0.622926 18.005495 -6.372723 -22.799224 2.437291 -0.987416 27.188995 -2.913972 -9.713611 -17.475246 -178.445200 0.000000 -0.474200
-8.211401 16.912353 -0.500263 -173.438179 82.254831 -170.363130 -12.170419 3.954511 0.181559 3.001003 10.257788 -11.772486 0.911728 3.285101 57.713623 2.240222 13.676101 8.969699 3.174900 -0.000001 -22.643200 8.199037 -1.591728 0.584243 17.985884 -6.314379 -21.715081 2.437579 -0.939915 26.858531 -2.953940 -9.781935 -17.901491 -178.333800 -0.000000 -0.706400
-8.015147 16.924793 -0.481240 -173.760485 82.374586 -170.665207 -12.147072 3.776500 0.187641 2.439150 9.954884 -13.526129 0.888254 3.335991 58.671779 2.225317 14.057657 6.357277 2.781300 -0.000000 -20.936400 8.192707 -1.625806 0.545826 17.974856 -6.279016 -20.639292 2.438910 -0.887536 26.455810 -2.990958 -9.858207 -18.247988 -178.239101 -0.000000 -0.807800
-7.818606 16.937871 -0.463054 -174.034445 82.482707 -170.891635 -12.115573 3.597177 0.228196 1.867570 9.555415 -15.259497 0.837347 3.365515 59.313508 2.186892 14.136992 3.805636 2.296500 0.000000 -19.619400 8.180275 -1.660303 0.508310 17.981833 -6.258109 -19.575029 2.442919 -0.829534 25.987870 -3.028006 -9.942654 -18.549614 -178.153200 0.000000 -0.850800
-7.621816 16.951323 -0.445781 -174.233044 82.583959 -171.014707 -12.076710 3.415174 0.303397 1.299001 9.061688 -16.967967 0.760327 3.373461 59.648264 2.128166 13.950314 1.383666 1.777599 0.000000 -18.588000 8.159713 -1.694535 0.471628 18.010590 -6.249105 -18.525150 2.451153 -0.765169 25.461281 -3.066660 -10.029926 -18.838588 -178.069100 -0.000001 -0.896200
-7.424811 16.964825 -0.429365 -174.378683 82.685549 -171.057448 -12.029293 3.230278 0.411439 0.736136 8.480681 -18.646033 0.659090 3.360581 59.689676 2.053639 13.547746 -0.877515 1.268899 0.000000 -17.658300 8.132529 -1.726972 0.434863 18.053986 -6.255539 -17.492231 2.464446 -0.694177 24.885971 -3.105921 -10.105672 -19.140698 -177.982500 -0.000000 -0.991100
-7.227673 16.977916 -0.413717 -174.468994 82.795944 -171.020313 -11.973384 3.041301 0.547569 0.186762 7.827156 -20.284573 0.537021 3.327993 59.449780 1.969467 12.987470 -2.948095 0.804600 -0.000000 -16.778200 8.098240 -1.756500 0.398705 18.108998 -6.265891 -16.465920 2.482781 -0.615507 24.258296 -3.146870 -10.169258 -19.470023 -177.889900 0.000000 -1.159800
-7.030488 16.990161 -0.398711 -174.529513 82.924628 -170.932970 -11.907869 2.848089 0.705557 -0.346748 7.120953 -21.873481 0.397254 3.277066 58.940139 1.882196 12.329200 -4.822900 0.402200 0.000000 -15.852200 8.058437 -1.781778 0.363633 18.167235 -6.271190 -15.434212 2.505272 -0.528467 23.573400 -3.188874 -10.217567 -19.827376 -177.791600 0.000000 -1.402100
-6.833226 17.001186 -0.384113 -174.599017 83.080587 -170.839284 -11.831018 2.651338 0.878397 -0.866312 6.385302 -23.401667 0.242893 3.208950 58.169452 1.798698 11.632109 -6.503762 0.067600 0.000000 -14.846500 8.015915 -1.801612 0.330107 18.218079 -6.263784 -14.384779 2.530387 -0.432905 22.826535 -3.229879 -10.246180 -20.201228 -177.691000 0.000000 -1.693001
-6.635842 17.010690 -0.369684 -174.723176 83.271550 -170.790226 -11.740804 2.452466 1.058577 -1.376268 5.647208 -24.858908 0.076773 3.124514 57.143731 1.725439 10.950208 -7.996988 -0.202400 0.000000 -13.751500 7.974192 -1.815102 0.298924 18.250140 -6.236506 -13.305406 2.555963 -0.329014 22.011861 -3.267181 -10.252664 -20.568788 -177.594200 -0.000000 -1.983700
-6.438161 17.018490 -0.355168 -174.959388 83.503653 -170.847969 -11.634758 2.254224 1.239505 -1.884773 4.935014 -26.237197 -0.098533 3.024252 55.867334 1.668127 10.330484 -9.309584 -0.416299 -0.000000 -12.557200 7.937932 -1.822064 0.270845 18.251789 -6.189194 -12.189358 2.579729 -0.217788 21.128342 -3.296384 -10.230769 -20.899267 -177.510000 0.000000 -2.208500
-6.240103 17.024420 -0.340304 -175.323664 83.779873 -171.034106 -11.512748 2.058421 1.413040 -2.393130 4.281196 -27.528055 -0.279243 2.908569 54.341261 1.630916 9.810293 -10.426574 -0.581400 -0.000000 -11.486700 7.908100 -1.822441 0.249143 18.221870 -6.100723 -11.021034 2.598709 -0.099573 20.164479 -3.317702 -10.196460 -21.160051 -177.444400 -0.000000 -2.303300
-6.041339 17.028609 -0.324904 -175.901372 84.100638 -171.436628 -11.371816 1.870538 1.575672 -2.918055 3.712155 -28.730613 -0.462815 2.777485 52.569430 1.616831 9.418308 -11.344880 -0.707800 0.000000 -10.538300 7.891736 -1.817245 0.233089 18.148339 -5.992491 -9.813214 2.611451 0.022710 19.138106 -3.324078 -10.132110 -21.322246 -177.407400 0.000000 -2.204400
-5.841701 17.031163 -0.308828 -176.727752 84.463015 -172.093971 -11.212100 1.694797 1.722750 -3.466906 3.256054 -29.842926 -0.645983 2.631314 50.555956 1.626311 9.167931 -12.045252 -0.800700 -0.000000 -9.879400 7.891196 -1.807862 0.224387 18.031752 -5.864072 -8.568586 2.616326 0.147013 18.056963 -3.314451 -10.044087 -21.365027 -177.403300 -0.000000 -1.873200
-5.640985 17.032278 -0.292016 -177.844143 84.861168 -173.050447 -11.034088 1.536119 1.851267 -4.049346 2.937251 -30.865284 -0.826673 2.470528 48.308406 1.657320 9.056325 -12.514584 -0.862501 0.000001 -9.605200 7.909199 -1.796269 0.223336 17.873620 -5.725807 -7.297727 2.612585 0.270533 16.938545 -3.287746 -9.934337 -21.278266 -177.433700 0.000000 -1.294900
-5.439058 17.032173 -0.274577 -179.284852 85.287225 -174.342938 -10.839293 1.399273 1.959399 -4.673748 2.775180 -31.798042 -1.004215 2.295827 45.839797 1.704942 9.061915 -12.746508 -0.892200 0.000000 -9.772600 7.947595 -1.784905 0.229457 17.678519 -5.591619 -6.014509 2.600376 0.390246 15.805651 -3.244218 -9.804718 -21.065490 -177.497100 -0.000001 -0.483000
-5.235870 17.031056 -0.256655 178.932024 85.732096 -175.992806 -10.630354 1.287835 2.045996 -5.346456 2.783848 -32.641197 -1.179941 2.108045 43.169897 1.761346 9.143893 -12.748390 -0.886201 0.000000 -10.361199 8.006945 -1.776556 0.241415 17.453414 -5.476560 -4.732798 2.580606 0.503102 14.683369 -3.185505 -9.657953 -20.741489 2.411500 0.000000 -0.528400
-5.031414 17.029078 -0.238569 176.791076 86.186574 -178.019779 -10.410333 1.203941 2.110410 -6.071703 2.969263 -33.392090 -1.357287 1.908063 40.327692 1.816017 9.244133 -12.544910 -0.842299 0.000000 -11.264200 8.087495 -1.774076 0.256157 17.204420 -5.399394 -3.465278 2.554767 0.605889 13.599710 -3.113580 -9.493917 -20.330187 2.298600 -0.000000 -1.698700
-4.825764 17.026344 -0.220685 174.308642 86.642511 179.588754 -10.183806 1.147006 2.153067 -6.847485 3.327023 -34.049434 -1.540282 1.696907 37.353286 1.856378 9.293802 -12.168396 -0.760100 -0.000000 -12.382300 8.187075 -1.780336 0.270863 16.940673 -5.372439 -2.222763 2.524863 0.695870 12.580732 -3.031868 -9.315204 -19.862286 2.172600 -0.000000 -2.968000
